# xmcd CD database file
#
# Track frame offsets:
#	150
#	14548
#	25322
#	37869
#	51408
#	66705
#	80319
#	94232
#	108989
#	123623
#	138304
#	159934
#	175123
#	195181
#	210211
#
# Disc length: 3296 seconds
#
# Revision: 0
# Processed by: cddbd v1.5.1PL2 Copyright (c) Steve Scherf et al.
# Submitted via: CDex 1.51
#
DISCID=c20cde0f
DTITLE=VARIOS - DINNER"S MERENGLASS
DYEAR=2004
DGENRE=Merengue
TTITLE0=LA SUEGRA
TTITLE1=LA VIRGEN DE LA SOLEDAD
TTITLE2=MI MERIDA
TTITLE3=PANCHO LOPEZ
TTITLE4=EL BORRIQUITO
TTITLE5=LOS MALES DE MICAELA
TTITLE6=EL METE Y SACA
TTITLE7=SOPA DE CARACOL
TTITLE8=EL PERICO Y YO
TTITLE9=LINDA MUJER
TTITLE10=LA BALA
TTITLE11=EL JALA JALA
TTITLE12=MI LINDO VERACRUZ
TTITLE13=EL MAMBITO DEL AMOR
TTITLE14=POPURRI TROPICOCO
EXTD=YEAR: 2004
EXTT0=
EXTT1=
EXTT2=
EXTT3=
EXTT4=
EXTT5=
EXTT6=
EXTT7=
EXTT8=
EXTT9=
EXTT10=
EXTT11=
EXTT12=
EXTT13=
EXTT14=
PLAYORDER=
